<?xml version="1.0" encoding="utf-8"?>
<!-- Generator: Adobe Illustrator 16.0.0, SVG Export Plug-In . SVG Version: 6.00 Build 0)  -->
<!DOCTYPE svg PUBLIC "-//W3C//DTD SVG 1.1//EN" "http://www.w3.org/Graphics/SVG/1.1/DTD/svg11.dtd">
<svg version="1.1" id="Capa_1" xmlns="http://www.w3.org/2000/svg" xmlns:xlink="http://www.w3.org/1999/xlink" x="0px" y="0px"
	 width="512px" height="512px" viewBox="0 0 512 512" enable-background="new 0 0 512 512" xml:space="preserve">
<g>
	<defs>
		<rect id="SVGID_1_" x="-162.119" y="-195.507" width="868.008" height="868.007"/>
	</defs>
	<clipPath id="SVGID_2_">
		<use xlink:href="#SVGID_1_"  overflow="visible"/>
	</clipPath>
	<path clip-path="url(#SVGID_2_)" fill="#268CE6" d="M257.42,507.393c-137.903,0-250.091-112.18-250.091-250.086
		c0-137.911,112.188-250.1,250.091-250.1c137.902,0,250.089,112.188,250.089,250.1C507.509,395.213,395.322,507.393,257.42,507.393
		 M257.42,24.567c-128.336,0-232.73,104.403-232.73,232.739c0,128.327,104.394,232.727,232.73,232.727
		c128.332,0,232.729-104.399,232.729-232.727C490.149,128.971,385.752,24.567,257.42,24.567"/>
	<path clip-path="url(#SVGID_2_)" fill="#268CE6" d="M392.27,232.19c-9.129-6.7-19.25-10.595-30.304-11.714
		c-7.714-0.811-18.056-0.271-30.974,1.897c9.249-8.43,15.919-16.898,20.107-25.433c4.102-8.506,6.366-17.196,6.654-26.118
		c0.305-8.887-1.331-17.465-4.909-25.658c-4.915-11.274-12.765-20.17-23.48-26.727c-10.79-6.561-23.42-9.642-37.957-9.295
		c-8.442,0.165-18.175,2.081-28.974,5.311l-18.445-42.298l-34.817,15.182l17.822,40.865l-22.328,9.731l-17.81-40.865l-34.818,15.181
		l17.822,40.865l-73.823,32.186l14.991,34.39l9.799-4.269c6.519-2.847,11.223-4.175,14.034-4.022
		c2.839,0.183,5.157,1.102,6.997,2.667c1.857,1.615,4.307,6.094,7.527,13.49l60.413,138.538c3.167,7.271,4.739,12.138,4.721,14.623
		c-0.059,2.509-0.987,4.763-2.806,6.941c-1.822,2.12-5.997,4.653-12.515,7.501l-9.799,4.273l14.992,34.391l73.827-32.188
		l17.793,40.815l34.772-15.164l-17.794-40.815l21.632-9.435c0.221-0.102,0.441-0.246,0.712-0.364l17.817,40.865l34.763-15.165
		l-18.707-42.898c10.613-6.324,19.081-12.657,25.328-19.016c11.944-12.096,19.514-25.506,22.634-40.068
		c3.11-14.563,1.787-28.465-3.959-41.628C408.358,247.77,401.4,238.887,392.27,232.19 M204.347,185.78l27.235-11.875
		c15.937-6.951,27.414-10.8,34.429-11.495c7.035-0.754,13.198,0.512,18.513,3.708c5.247,3.205,9.35,8.074,12.198,14.602
		c2.729,6.273,3.391,12.593,2.06,18.895c-1.348,6.361-4.917,12.16-10.673,17.525c-5.814,5.341-15.825,11.139-30.104,17.368
		l-27.227,11.872L204.347,185.78z M348.251,305.726c-2.146,8.316-6.29,14.959-12.376,19.937c-6.069,5.01-14.341,9.774-24.922,14.385
		l-18.122,7.901c-6.062,2.643-9.9,3.924-11.521,3.872c-1.66-0.049-3.145-0.779-4.467-2.177c-1.034-1.104-3.237-5.418-6.701-12.979
		l-23.463-53.811l32.123-14.003c14.139-6.18,25.175-9.392,33.193-9.807c8.019-0.407,14.834,1.236,20.539,4.847
		c5.637,3.604,10.079,9.088,13.283,16.438C349.633,288.958,350.42,297.478,348.251,305.726"/>
</g>
</svg>
